<?xml version="1.0" encoding="UTF-8"?>
<svg xmlns="http://www.w3.org/2000/svg" width="200" height="200" viewBox="0 0 200 200">
  <title>Ethos Icon White</title>
  <g transform="translate(18 18) scale(0.82)" fill="#FFFFFF">
    <path d="M160.241 179.799C142.987 192.825 121.869 200 100.001 200C73.4798 200 48.0445 189.462 29.291 170.709C10.5385 151.956 -3.23666e-06 126.519 0 99.9987C0.000781856 78.1327 7.1821 57.0188 20.2074 39.7657L32.1285 51.6868C22.1513 65.7057 16.6739 82.5647 16.6732 99.9987C16.6731 122.099 25.447 143.298 41.074 158.926C56.7019 174.554 77.9 183.327 100.001 183.327C117.436 183.327 134.294 177.849 148.313 167.872L160.241 179.799Z" />
    <path d="M137.549 157.109C133.958 159.47 130.145 161.501 126.155 163.154C117.864 166.588 108.972 168.358 99.9968 168.358C91.022 168.357 82.13 166.588 73.8383 163.154C65.5479 159.719 58.0117 154.684 51.666 148.339C45.3196 141.992 40.2795 134.453 36.8448 126.16C33.4104 117.868 31.6408 108.977 31.6407 100.002C31.6409 91.027 33.4106 82.1351 36.8448 73.8433C38.4972 69.8542 40.5353 66.0465 42.8963 62.4558L55.0245 74.584C53.9936 76.4073 53.0483 78.2848 52.2436 80.2275C49.6479 86.4963 48.3141 93.2169 48.3138 100.002C48.3139 106.789 49.6527 113.512 52.2498 119.782C54.847 126.052 58.6505 131.757 63.449 136.556C68.2472 141.354 73.954 145.158 80.2226 147.755C86.4909 150.351 93.2123 151.684 99.9968 151.685C106.781 151.685 113.503 150.35 119.771 147.755C121.714 146.95 123.597 146.011 125.421 144.98L137.549 157.109Z" />
    <path d="M170.709 29.291C189.463 48.0443 200 73.4802 200.001 100.001C200.001 121.828 192.849 142.91 179.868 160.146L174.639 154.917C186.278 139.1 192.668 119.88 192.668 100.001C192.668 75.4251 182.902 51.8542 165.524 34.4763C148.146 17.0984 124.576 7.33217 99.9993 7.33217C80.1208 7.33218 60.901 13.7228 45.0833 25.3613L39.8541 20.1321C57.0906 7.15154 78.1722 1.3339e-05 99.9993 0C126.52 3.00344e-06 151.956 10.5379 170.709 29.291Z" />
    <path d="M148.333 51.668C154.68 58.0148 159.72 65.5546 163.155 73.8466C166.589 82.1384 168.359 91.0304 168.359 100.005C168.358 108.98 166.589 117.872 163.155 126.164C161.518 130.114 159.504 133.884 157.172 137.444L151.855 132.127C153.586 129.331 155.111 126.404 156.375 123.351C159.44 115.95 161.026 108.016 161.027 100.005C161.027 91.9936 159.446 84.0546 156.381 76.6527C153.315 69.2504 148.813 62.519 143.148 56.8533C137.483 51.1889 130.756 46.6926 123.355 43.6265C115.952 40.5602 108.015 38.9814 100.003 38.9811C91.9897 38.9811 84.0532 40.5602 76.6501 43.6265C73.597 44.8912 70.6638 46.4073 67.8678 48.1401L62.557 42.8293C66.1178 40.4971 69.8927 38.4898 73.8441 36.853C82.1368 33.4182 91.0266 31.649 100.003 31.649C108.978 31.6492 117.869 33.4182 126.161 36.853C134.452 40.2877 141.988 45.3228 148.333 51.668Z" />
  </g>
</svg>
